<?xml version="1.0" standalone="no"?><!DOCTYPE svg PUBLIC "-//W3C//DTD SVG 1.1//EN" "http://www.w3.org/Graphics/SVG/1.1/DTD/svg11.dtd"><svg t="1582599675144" class="icon" viewBox="0 0 1034 1024" version="1.1" xmlns="http://www.w3.org/2000/svg" p-id="5164" xmlns:xlink="http://www.w3.org/1999/xlink" width="201.953125" height="200"><defs><style type="text/css"></style></defs><path d="M798.57140557 960.62782256H485.98036455c-95.88596661 0-172.27801494-78.12863964-172.27801494-172.29601055v-51.48590097c0-95.88596661 78.11064404-172.31850527 172.27801494-172.31850528h312.58654189c95.90396221 0 172.33650088 78.16912998 172.33650088 172.31850528v51.48590097c0 94.16737089-78.17362911 172.29601055-172.33200175 172.29601055z" fill="#6799FF" p-id="5165"></path><path d="M280.13123955 495.32466904C161.59759473 495.32466904 65.60815185 399.37571651 65.60815185 280.80158135 65.60815185 162.2679374 161.5930956 68.16355156 280.13123955 68.16355156c118.53364482 0 214.51858769 95.98494375 214.51858769 214.54108242 0 118.57413516-95.98494375 212.62003418-214.51858769 212.62003506z m0-376.32756357c-88.44471563 0-161.8269706 73.38225498-161.82697148 161.80447588 0 88.44471563 73.38225498 161.80447588 161.82697148 161.80447588 88.4222209 0 161.8269706-73.35976026 161.82697061-161.80447588 0-88.42672002-73.40025059-161.80447588-161.82697061-161.80447588z m545.69476143 372.58444248h-150.52562666a138.96334336 138.96334336 0 0 1-139.27826953-139.27826953V201.78215088c0-77.16136729 62.12140136-139.24227833 139.27826953-139.24227744h150.52562666a138.92285302 138.92285302 0 0 1 139.2377792 139.24227744v150.52112754c0.00449912 77.16136729-62.09440752 139.27826953-139.2377792 139.27826953z m-150.52562666-376.36355391c-47.04994336 0-86.58215333 39.49171963-86.58215333 86.56415684v150.52112754c0 47.07243808 39.53220996 86.58665244 86.58215333 86.58665244h150.52562666c47.04994336 0 86.58215333-39.50971523 86.58215332-86.58665244V201.78215088c0-47.03644599-39.50971523-86.56415771-86.58215332-86.56415684h-150.52562666zM355.37155771 961.99550088H204.85043018A138.90485742 138.90485742 0 0 1 65.61265097 822.75772168V672.23659414c0-77.16136729 62.07641191-139.28276865 139.23777921-139.28276865H355.37605684c77.16136729 0 139.27826953 62.12140136 139.27826953 139.28276865v150.52112754c-0.00449912 77.13887256-62.12140136 139.2377792-139.28276866 139.2377792z m-150.52112753-376.3455583c-47.03194776 0-86.56415771 39.50971523-86.56415771 86.58665156v150.52112754c0 47.01395214 39.50971523 86.54166299 86.56415771 86.54166299H355.37605684c47.04994336 0 86.58665244-39.50971523 86.58665156-86.54166299V672.23659414c0-47.07693721-39.53220996-86.58665244-86.58665156-86.58665156H204.85043018z m620.9755708 376.3455583h-150.52562666c-77.15686816 0-139.27826953-62.07641191-139.27826953-139.2377792V672.23659414c0-77.16136729 62.12140136-139.28276865 139.27826953-139.28276865h150.52562666c77.15686816 0 139.2377792 62.12140136 139.2377792 139.28276865v150.52112754c0.00449912 77.13887256-62.09440752 139.2377792-139.2377792 139.2377792z m-150.52562666-376.3455583c-47.04994336 0-86.58215333 39.50971523-86.58215333 86.58665156v150.52112754c0 47.01395214 39.53220996 86.54166299 86.58215333 86.54166299h150.52562666c47.04994336 0 86.58215333-39.50971523 86.58215332-86.54166299V672.23659414c0-47.07693721-39.50971523-86.58665244-86.58215332-86.58665156h-150.52562666z" fill="#073A77" p-id="5166"></path><path d="M280.13123955 380.52964531c-54.5541794 0-97.84750605-45.13339336-97.84750606-97.82950956 0-52.67362148 45.19188018-97.86550166 97.84750606-97.86550167 52.65562588 0 97.84750605 45.19188018 97.84750517 97.86550167 0 52.70061533-43.27083106 97.82951045-97.84750517 97.82950956z m0-150.52112753c-28.20837129 0-52.67362148 22.56669667-52.67362236 52.6961162 0 30.0889292 22.54870107 52.69611622 52.67362236 52.69611709 30.0889292 0 52.67362148-22.58919141 52.67362149-52.69611709 0-30.12941953-24.44275635-52.69611622-52.67362149-52.6961162z" fill="#073A77" p-id="5167"></path></svg>