<?xml version="1.0" standalone="no"?><!DOCTYPE svg PUBLIC "-//W3C//DTD SVG 1.1//EN" "http://www.w3.org/Graphics/SVG/1.1/DTD/svg11.dtd"><svg t="1582599460706" class="icon" viewBox="0 0 1024 1024" version="1.1" xmlns="http://www.w3.org/2000/svg" p-id="4076" xmlns:xlink="http://www.w3.org/1999/xlink" width="200" height="200"><defs><style type="text/css"></style></defs><path d="M807.725 956.333H216.276c-44.342 0-80.417-36.075-80.417-80.417v-550.97c0-44.341 36.075-80.416 80.417-80.416h95.863c11.046 0 20 8.955 20 20s-8.954 20-20 20h-95.863c-22.286 0-40.417 18.13-40.417 40.416v550.97c0 22.286 18.131 40.417 40.417 40.417h591.448c22.285 0 40.416-18.131 40.416-40.417v-550.97c0-22.286-18.131-40.416-40.416-40.416h-93.23c-11.047 0-20-8.955-20-20s8.953-20 20-20h93.23c44.342 0 80.416 36.075 80.416 80.416v550.97c0.001 44.342-36.074 80.417-80.415 80.417z" fill="#808080" p-id="4077"></path><path d="M423.977 429.6a19.999 19.999 0 0 1-19.759-23.103l14.227-90.562-66.533-63.063a20.001 20.001 0 0 1 10.607-34.266l90.525-14.445 39.415-82.758a19.998 19.998 0 0 1 17.776-11.398c7.578-0.125 14.624 4.117 18.089 10.896l41.716 81.619 90.891 11.911a20 20 0 1 1 11.562 33.955l-64.744 64.903 16.762 90.121a20 20 0 0 1-28.722 21.488l-81.725-41.52-80.533 43.792a19.993 19.993 0 0 1-9.554 2.43z m191.576-180.775" fill="#33DEB4" opacity=".4" p-id="4078"></path><path d="M423.977 394a19.999 19.999 0 0 1-19.759-23.103l14.227-90.562-66.533-63.063a20.001 20.001 0 0 1 10.607-34.266l90.525-14.445 39.415-82.758a19.998 19.998 0 0 1 17.776-11.398c7.577-0.126 14.624 4.117 18.089 10.896l41.716 81.618 90.891 11.912a20 20 0 1 1 11.562 33.955l-64.744 64.903 16.762 90.121a20 20 0 0 1-28.722 21.488l-81.725-41.52-80.534 43.792a19.986 19.986 0 0 1-9.553 2.43z m-15.136-177.88l44.75 42.416a20.002 20.002 0 0 1 6 17.619l-9.569 60.916 54.17-29.457a20.002 20.002 0 0 1 18.613-0.261l54.968 27.926-11.273-60.614a20 20 0 0 1 5.504-17.782l43.55-43.657-61.136-8.013a19.997 19.997 0 0 1-15.21-10.728l-28.06-54.899-26.513 55.668a19.998 19.998 0 0 1-14.905 11.15l-60.889 9.716z" fill="#33DEB4" p-id="4079"></path><path d="M322.259 837.083c-16.568 0-30-13.432-30-30V478.101c0-16.568 13.432-30 30-30s30 13.432 30 30v328.982c0 16.568-13.431 30-30 30zM448.752 837.083c-16.568 0-30-13.432-30-30V554.598c0-16.568 13.432-30 30-30 16.568 0 30 13.432 30 30v252.485c0 16.568-13.431 30-30 30zM575.246 837.083c-16.568 0-30-13.432-30-30V642.592c0-16.568 13.432-30 30-30s30 13.432 30 30v164.491c0 16.568-13.432 30-30 30zM701.74 837.083c-16.568 0-30-13.432-30-30v-91.994c0-16.568 13.432-30 30-30s30 13.432 30 30v91.994c0 16.568-13.431 30-30 30z" fill="#808080" p-id="4080"></path></svg>