<?xml version="1.0" standalone="no"?><!DOCTYPE svg PUBLIC "-//W3C//DTD SVG 1.1//EN" "http://www.w3.org/Graphics/SVG/1.1/DTD/svg11.dtd"><svg t="1582599424976" class="icon" viewBox="0 0 1024 1024" version="1.1" xmlns="http://www.w3.org/2000/svg" p-id="3562" xmlns:xlink="http://www.w3.org/1999/xlink" width="200" height="200"><defs><style type="text/css"></style></defs><path d="M847.36 921.088c-16.384 0-29.184-13.312-29.184-29.184l0-63.488c0-16.384 13.312-29.184 29.184-29.184s29.184 13.312 29.184 29.184l0 63.488C876.544 907.776 863.232 921.088 847.36 921.088z" p-id="3563"></path><path d="M918.016 593.408l-41.984 0c-16.384 0-29.184-13.312-29.184-29.184s13.312-29.184 29.184-29.184l41.984 0c16.384 0 29.184 13.312 29.184 29.184S934.4 593.408 918.016 593.408z" p-id="3564"></path><path d="M568.32 933.376 137.728 933.376c-40.448 0-73.216-32.768-73.216-73.216l0-629.76c0-40.448 32.768-73.216 73.216-73.216L235.52 157.184c16.384 0 29.184 13.312 29.184 29.184 0 16.384-13.312 29.184-29.184 29.184L137.728 215.552c-8.192 0-14.848 6.656-14.848 14.848l0 629.76c0 8.192 6.656 14.848 14.848 14.848L568.32 875.008c8.192 0 14.848-6.656 14.848-14.848l0-629.76c0-8.192-6.656-14.848-14.848-14.848L472.576 215.552c-16.384 0-29.184-13.312-29.184-29.184 0-16.384 13.312-29.184 29.184-29.184L568.32 157.184c40.448 0 73.216 32.768 73.216 73.216l0 629.76C641.536 900.096 608.768 933.376 568.32 933.376z" p-id="3565"></path><path d="M451.584 149.504 253.952 149.504c-16.384 0-29.184-13.312-29.184-29.184s13.312-29.184 29.184-29.184l197.632 0c16.384 0 29.184 13.312 29.184 29.184S467.968 149.504 451.584 149.504z" p-id="3566"></path><path d="M671.744 450.048 634.88 450.048c-16.384 0-29.184-13.312-29.184-29.184s13.312-29.184 29.184-29.184l36.864 0c16.384 0 29.184 13.312 29.184 29.184S688.128 450.048 671.744 450.048z" p-id="3567"></path><path d="M877.568 673.28c-14.848 0-27.136-10.752-29.184-25.6l-18.944-158.72c0-0.512 0-1.536 0-2.048-1.024-10.752-6.144-36.352-39.424-36.352L634.88 450.56c-16.384 0-29.184-13.312-29.184-29.184s13.312-29.184 29.184-29.184l155.136 0c68.096 0 95.744 54.272 97.792 91.136l18.944 158.208c2.048 15.872-9.728 30.72-25.6 32.768C880.128 673.28 878.592 673.28 877.568 673.28z" p-id="3568"></path><path d="M896.512 856.064l-284.672 0c-16.384 0-29.184-13.312-29.184-29.184s13.312-29.184 29.184-29.184l284.672 0c8.192 0 14.848-6.656 14.848-14.848l0-83.456c0-8.192-6.656-14.848-14.848-14.848l-284.672 0c-16.384 0-29.184-13.312-29.184-29.184 0-16.384 13.312-29.184 29.184-29.184l284.672 0c40.448 0 73.216 32.768 73.216 73.216l0 83.456C969.728 823.296 936.96 856.064 896.512 856.064z" p-id="3569"></path><path d="M838.656 739.84m-36.864 0a7.2 7.2 0 1 0 73.728 0 7.2 7.2 0 1 0-73.728 0Z" p-id="3570"></path><path d="M338.432 665.088c-16.384 0-29.184-13.312-29.184-29.184l0-76.288c0-16.384 13.312-29.184 29.184-29.184 42.496 0 76.8-34.304 76.8-76.8 0-42.496-34.304-76.8-76.8-76.8-42.496 0-76.8 34.304-76.8 76.8 0 16.384-13.312 29.184-29.184 29.184-16.384 0-29.184-13.312-29.184-29.184 0-74.752 60.416-135.168 135.168-135.168S473.6 378.88 473.6 453.632c0 64.512-45.568 118.784-105.984 132.096l0 50.176C367.616 652.288 354.304 665.088 338.432 665.088z" p-id="3571"></path><path d="M337.408 817.152c-16.384 0-29.184-13.312-29.184-29.184l0-58.368c0-16.384 13.312-29.184 29.184-29.184 16.384 0 29.184 13.312 29.184 29.184l0 58.368C366.592 803.84 353.28 817.152 337.408 817.152z" p-id="3572"></path></svg>